<?xml version="1.0" encoding="UTF-8" standalone="no"?>
<!-- Generator: Adobe Illustrator 19.1.0, SVG Export Plug-In . SVG Version: 6.00 Build 0)  -->

<svg
   xmlns:dc="http://purl.org/dc/elements/1.1/"
   xmlns:cc="http://creativecommons.org/ns#"
   xmlns:rdf="http://www.w3.org/1999/02/22-rdf-syntax-ns#"
   xmlns:svg="http://www.w3.org/2000/svg"
   xmlns="http://www.w3.org/2000/svg"
   xmlns:sodipodi="http://sodipodi.sourceforge.net/DTD/sodipodi-0.dtd"
   xmlns:inkscape="http://www.inkscape.org/namespaces/inkscape"
   version="1.1"
   id="Layer_1"
   x="0px"
   y="0px"
   viewBox="0 0 115 50"
   xml:space="preserve"
   inkscape:version="0.91 r13725"
   sodipodi:docname="logo.svg"
   width="115"
   height="50"><metadata
     id="metadata21"><rdf:RDF><cc:Work
         rdf:about=""><dc:format>image/svg+xml</dc:format><dc:type
           rdf:resource="http://purl.org/dc/dcmitype/StillImage" /><dc:title></dc:title></cc:Work></rdf:RDF></metadata><defs
     id="defs19" /><sodipodi:namedview
     pagecolor="#ffffff"
     bordercolor="#666666"
     borderopacity="1"
     objecttolerance="10"
     gridtolerance="10"
     guidetolerance="10"
     inkscape:pageopacity="0"
     inkscape:pageshadow="2"
     inkscape:window-width="1920"
     inkscape:window-height="1053"
     id="namedview17"
     showgrid="false"
     inkscape:zoom="1"
     inkscape:cx="117.99375"
     inkscape:cy="56.368731"
     inkscape:window-x="0"
     inkscape:window-y="27"
     inkscape:window-maximized="1"
     inkscape:current-layer="Layer_1" /><style
     type="text/css"
     id="style3">
	.st0{fill:#FFFFFF;}
	.st1{font-family:'Montserrat-UltraLight';}
	.st2{font-size:4.687px;}
	.st3{font-size:2.8643px;}
	.st4{font-size:3.1247px;}
</style><g
     id="g5"
     transform="matrix(3.7504357,0,0,3.7504357,-493.38869,-239.3749)"><path
       class="st0"
       d="m 147.5,70.6 5.9,-5.9 c 0,0 0,-0.1 0,-0.2 0,0 -0.1,0 -0.2,0 l -5.9,5.9 -5.9,-5.9 c 0,0 -0.1,0 -0.2,0 0,0 0,0.1 0,0.2 l 5.9,5.9 -5.9,5.9 c 0,0 0,0.1 0,0.2 0,0 0.1,0 0.1,0 0,0 0.1,0 0.1,0 l 5.9,-5.9 5.9,5.9 c 0,0 0.1,0 0.1,0 0,0 0.1,0 0.1,0 0,0 0,-0.1 0,-0.2 l -5.9,-5.9 z"
       id="path7"
       inkscape:connector-curvature="0"
       style="fill:#ffffff" /></g><text
     class="st0 st1 st2"
     id="text9"
     style="font-size:17.57829094px;font-family:Montserrat-UltraLight;fill:#ffffff"
     x="53.016014"
     y="16.536821">A</text>
<text
     class="st0 st1 st3"
     id="text11"
     style="font-size:10.74237251px;font-family:Montserrat-UltraLight;fill:#ffffff"
     x="3.4911544"
     y="28.623344">AMANDA</text>
<text
     class="st0 st1 st4"
     id="text13"
     style="font-size:11.71898651px;font-family:Montserrat-UltraLight;fill:#ffffff"
     x="68.069145"
     y="28.623344">KNOLL</text>
<text
     class="st0 st1 st2"
     id="text15"
     style="font-size:17.57829094px;font-family:Montserrat-UltraLight;fill:#ffffff"
     x="53.016014"
     y="46.324276">K</text>
</svg>